<svg width="12" height="13" viewBox="0 0 12 13" fill="none" xmlns="http://www.w3.org/2000/svg">
<path d="M7.40559 6.0025L11.6974 1.7125C12.0875 1.3225 12.0875 0.6925 11.6974 0.3025C11.3072 -0.0875 10.6769 -0.0875 10.2868 0.3025L5.995 4.5925L1.70321 0.2925C1.31305 -0.0975 0.682784 -0.0975 0.292622 0.2925C-0.0975406 0.6825 -0.0975406 1.3125 0.292622 1.7025L4.58441 6.0025L0.292622 10.2925C-0.0975406 10.6825 -0.0975406 11.3125 0.292622 11.7025C0.482701 11.9025 0.732805 12.0025 0.992914 12.0025C1.25302 12.0025 1.50313 11.9025 1.70321 11.7125L5.995 7.4125L10.2868 11.7025C10.4869 11.9025 10.737 12.0025 10.9971 12.0025C11.2572 12.0025 11.5073 11.9025 11.7074 11.7125C12.0975 11.3225 12.0975 10.6925 11.7074 10.3025L7.40559 6.0025Z" fill="#333333"/>
</svg>
